{"asset":{"version":"2.0","generator":"THREE.GLTFExporter"},"scenes":[{"nodes":[0],"name":"AuxScene"}],"scene":0,"nodes":[{"mesh":0}],"bufferViews":[{"buffer":0,"byteOffset":0,"byteLength":4392,"target":34962,"byteStride":12},{"buffer":0,"byteOffset":4392,"byteLength":4392,"target":34962,"byteStride":12}],"buffers":[{"byteLength":8784,"uri":"data:application/octet-stream;base64,"}],"accessors":[{"bufferView":0,"componentType":5126,"count":366,"max":[25.10000228881836,10.016546249389648,10.10000228881836],"min":[-25.100000381469727,0.2165450006723404,-40.099998474121094],"type":"VEC3"},{"bufferView":1,"componentType":5126,"count":366,"max":[0,1,0],"min":[-0.34013617038726807,0.9403762221336365,0],"type":"VEC3"}],"materials":[{"pbrMetallicRoughness":{"baseColorFactor":[0.5019607843137255,0.5019607843137255,0.5019607843137255,1],"metallicFactor":0,"roughnessFactor":1}}],"meshes":[{"primitives":[{"mode":4,"attributes":{"POSITION":0,"NORMAL":1},"material":0}]}]}